<svg width="1400" height="560" viewBox="0 0 1400 560" fill="none" xmlns="http://www.w3.org/2000/svg">
  <defs>
    <linearGradient id="bg" x1="0" y1="0" x2="1400" y2="560" gradientUnits="userSpaceOnUse">
      <stop stop-color="#0F172A"/>
      <stop offset="1" stop-color="#1D4ED8"/>
    </linearGradient>
    <linearGradient id="card" x1="0" y1="0" x2="1" y2="1">
      <stop stop-color="#FFFFFF" stop-opacity="0.18"/>
      <stop offset="1" stop-color="#FFFFFF" stop-opacity="0.08"/>
    </linearGradient>
  </defs>
  <rect width="1400" height="560" rx="32" fill="url(#bg)"/>
  <circle cx="1150" cy="120" r="180" fill="#60A5FA" fill-opacity="0.18"/>
  <circle cx="1240" cy="430" r="220" fill="#22C55E" fill-opacity="0.14"/>
  <rect x="74" y="72" width="560" height="416" rx="28" fill="url(#card)" stroke="rgba(255,255,255,0.18)"/>
  <rect x="110" y="120" width="180" height="36" rx="18" fill="#DBEAFE" fill-opacity="0.95"/>
  <rect x="110" y="182" width="300" height="24" rx="12" fill="white" fill-opacity="0.92"/>
  <rect x="110" y="222" width="430" height="18" rx="9" fill="white" fill-opacity="0.62"/>
  <rect x="110" y="256" width="400" height="18" rx="9" fill="white" fill-opacity="0.62"/>
  <rect x="110" y="304" width="160" height="44" rx="14" fill="#16A34A"/>
  <rect x="286" y="304" width="126" height="44" rx="14" fill="#FFFFFF" fill-opacity="0.18"/>
  <rect x="110" y="380" width="480" height="72" rx="20" fill="#FFFFFF" fill-opacity="0.10"/>
  <rect x="710" y="110" width="540" height="132" rx="28" fill="#FFFFFF" fill-opacity="0.12" stroke="rgba(255,255,255,0.14)"/>
  <rect x="710" y="264" width="260" height="150" rx="28" fill="#FFFFFF" fill-opacity="0.12" stroke="rgba(255,255,255,0.14)"/>
  <rect x="990" y="264" width="260" height="150" rx="28" fill="#FFFFFF" fill-opacity="0.12" stroke="rgba(255,255,255,0.14)"/>
  <text x="710" y="170" fill="white" font-size="52" font-family="Inter, Arial, sans-serif" font-weight="700">FaFaFa-全部发</text>
  <text x="710" y="215" fill="#DBEAFE" font-size="24" font-family="Inter, Arial, sans-serif">One-click multi-platform publishing from your Markdown editor</text>
  <text x="740" y="328" fill="white" font-size="24" font-family="Inter, Arial, sans-serif" font-weight="600">Direct editor publishing</text>
  <text x="740" y="366" fill="#DBEAFE" font-size="18" font-family="Inter, Arial, sans-serif">Detect installed bridge, select platforms, and publish without leaving fafafa.ai mdeditor.</text>
  <text x="1020" y="328" fill="white" font-size="24" font-family="Inter, Arial, sans-serif" font-weight="600">Local-first workflow</text>
  <text x="1020" y="366" fill="#DBEAFE" font-size="18" font-family="Inter, Arial, sans-serif">Built for store submission with explicit permissions, privacy notes, and brand consistency.</text>
</svg>
