<svg width="1400" height="560" viewBox="0 0 1400 560" fill="none" xmlns="http://www.w3.org/2000/svg">
  <defs>
    <linearGradient id="bg" x1="0" y1="0" x2="1400" y2="560" gradientUnits="userSpaceOnUse">
      <stop stop-color="#0A1024"/>
      <stop offset="1" stop-color="#254ED8"/>
    </linearGradient>
    <linearGradient id="card" x1="0" y1="0" x2="1" y2="1">
      <stop stop-color="#FFFFFF" stop-opacity="0.12"/>
      <stop offset="1" stop-color="#FFFFFF" stop-opacity="0.05"/>
    </linearGradient>
  </defs>
  <rect width="1400" height="560" rx="32" fill="url(#bg)"/>
  <circle cx="1140" cy="120" r="180" fill="#60A5FA" fill-opacity="0.18"/>
  <circle cx="1240" cy="420" r="220" fill="#16C47F" fill-opacity="0.14"/>
  <rect x="74" y="72" width="560" height="416" rx="28" fill="url(#card)" stroke="rgba(255,255,255,0.18)"/>
  <rect x="110" y="120" width="180" height="36" rx="18" fill="#DBEAFE" fill-opacity="0.95"/>
  <rect x="110" y="182" width="300" height="24" rx="12" fill="white" fill-opacity="0.92"/>
  <rect x="110" y="222" width="430" height="18" rx="9" fill="white" fill-opacity="0.56"/>
  <rect x="110" y="256" width="400" height="18" rx="9" fill="white" fill-opacity="0.56"/>
  <rect x="110" y="304" width="160" height="44" rx="14" fill="#16A34A"/>
  <rect x="286" y="304" width="126" height="44" rx="14" fill="#FFFFFF" fill-opacity="0.18"/>
  <rect x="110" y="380" width="480" height="72" rx="20" fill="#FFFFFF" fill-opacity="0.10"/>
  <image href="../brand/fafafa-logo-512.png" x="712" y="98" width="120" height="120"/>
  <text x="850" y="188" fill="white" font-size="58" font-family="Arial, sans-serif" font-weight="700">FaFaFa Publisher</text>
  <text x="850" y="228" fill="#DBEAFE" font-size="24" font-family="Arial, sans-serif">One-click multi-platform publishing from your Markdown editor</text>
  <rect x="710" y="264" width="260" height="150" rx="28" fill="#081023" fill-opacity="0.42" stroke="rgba(255,255,255,0.14)"/>
  <rect x="990" y="264" width="260" height="150" rx="28" fill="#081023" fill-opacity="0.42" stroke="rgba(255,255,255,0.14)"/>
  <text x="740" y="324" fill="white" font-size="24" font-family="Arial, sans-serif" font-weight="600">Direct editor publishing</text>
  <text x="740" y="362" fill="#DBEAFE" font-size="18" font-family="Arial, sans-serif">Launch from mdeditor, select platforms, and publish in one flow.</text>
  <text x="1020" y="324" fill="white" font-size="24" font-family="Arial, sans-serif" font-weight="600">Fa-led identity</text>
  <text x="1020" y="362" fill="#DBEAFE" font-size="18" font-family="Arial, sans-serif">Clear monogram, strong contrast, and better small-size recognition.</text>
</svg>